<?xml version="1.0" encoding="utf-8" ?>
<svg xmlns="http://www.w3.org/2000/svg" xmlns:xlink="http://www.w3.org/1999/xlink" width="1024" height="1024">
	<defs>
		<linearGradient id="gradient_0" gradientUnits="userSpaceOnUse" x1="394.91605" y1="354.1348" x2="372.26746" y2="395.7373">
			<stop offset="0" stop-color="#2992D8"/>
			<stop offset="1" stop-color="#30A9D9"/>
		</linearGradient>
	</defs>
	<path fill="url(#gradient_0)" transform="scale(2 2)" d="M382.204 350.588C410.029 347.509 419.489 394.623 386.063 399.238C354.512 400.886 348.822 355.237 382.204 350.588ZM380.868 365.539C370.283 369.237 372.166 387.585 386.063 384.644C397.007 379.208 393.535 364.217 380.868 365.539Z"/>
	<path fill="#2D84AF" transform="scale(2 2)" d="M306.171 328.272L378.718 328.248C381.647 328.244 384.832 327.982 387.723 328.368C396.025 329.477 396.666 341.636 388.272 343.07C385.526 343.539 382.4 343.281 379.613 343.283L308.181 343.276C305.542 345.85 302.957 348.704 300.578 351.519C304.529 351.479 308.106 351.555 311.922 352.65C336.243 362.391 330.694 394.209 308.971 399.204C288.305 403.956 272.127 381.031 283.92 362.641C279.212 359.658 277.474 355.938 281.153 351.273C286.115 344.982 298.265 329.189 306.171 328.272ZM302.522 367.013C291.464 370.361 292.77 384.224 306.171 384.644C316.34 379.649 313.507 366.071 302.522 367.013Z"/>
	<path fill="#3861C1" transform="scale(2 2)" d="M262.16 186.207C283.137 185.776 278.733 184.168 294.156 197.955L310.413 212.229L394.161 212.233C398.704 212.233 424.208 211.707 426.519 212.544C434.38 215.392 430.024 223.497 428.03 228.755L402.99 296.526C392.723 323.379 400.536 319.816 370.092 319.79L314.353 319.818C295.586 319.915 296.387 320.286 296.475 303.317L296.496 221.019C290.409 216.056 280.099 207.161 274.771 201.254C271.19 201.275 264.065 201.945 260.922 200.603C253.45 197.41 255.444 188.595 262.16 186.207ZM311.922 226.778C310.929 228.714 311.926 239.039 311.925 241.981L311.922 304.631L375.545 304.605C378.256 304.594 381.036 304.439 383.737 304.631C385.94 297.997 388.428 291.471 390.832 284.909C397.705 265.72 405.986 245.965 412.181 226.778L311.922 226.778Z"/>
	<path fill="#3861C1" transform="scale(2 2)" d="M326.99 243.029L394.354 243.029C394.454 247.967 394.372 252.915 394.354 257.854C371.924 258.209 349.427 257.855 326.99 257.854L326.99 243.029Z"/>
	<path fill="#2D84AF" transform="scale(2 2)" d="M87.5702 302.159L87.9296 302.249C93.7284 303.737 101.91 307.52 107.768 309.854L152.039 327.924C158.961 330.783 166.126 334.761 173.599 335.76C186.265 337.452 202.998 331.331 206.443 317.757C210.336 302.42 198.359 297.803 187.411 291.345C175.57 284.361 163.606 277.488 151.623 270.751L138.85 263.409C134.289 260.803 129.778 258.348 125.54 255.215C68.4893 213.039 93.2071 115.073 166.859 104.007C175.292 102.74 183.983 103.16 192.491 103.163L258.362 103.164C265.406 103.157 274.358 102.398 281.086 104.102C292.728 107.05 301.663 117.303 303.445 129.071C304.226 134.23 304.52 161.296 303.772 167.451C300.12 171.445 296.155 170.269 291.294 170.265L196.339 170.249C190.17 170.247 183.406 169.163 178.756 174.151C168.518 185.133 182.501 192.183 189.954 196.224C203.986 203.831 217.762 212.021 231.676 219.851C264.16 238.13 282.294 254.375 286.595 295.237C292.422 350.592 255.321 392.641 200.51 398.148C196.257 398.576 173.67 399.282 169.31 398.493C163.928 398.848 158.479 398.507 153.087 398.503L98.189 398.506C83.2538 398.512 80.3712 401.567 80.4839 384.914L80.4984 329.128L80.4651 315.921C80.4572 308.992 79.3315 304.215 87.5702 302.159ZM95.8171 320.62C95.8624 322.117 95.8566 323.602 95.8171 325.1C96.1608 344.46 95.8112 363.893 95.8171 383.261C118.424 383.587 141.063 382.859 163.668 383.261C198.131 382.38 225.231 386.477 252.819 357.543C279.687 329.364 278.523 277.165 250.502 250.576C238.046 238.755 204.434 222.473 188.569 213.049C181.988 209.139 174.023 205.872 168.488 200.539C158.394 190.814 158.009 173.656 167.934 163.663C176.375 155.166 184.421 155.491 195.403 155.488L289.241 155.485C289.253 149.262 290.018 134.95 288.331 129.515C284.163 116.078 270.243 118.192 259.317 118.222L196.43 118.21C184.123 118.209 170.909 117.287 159.004 121.02C106.56 137.466 91.6492 212.446 134.634 243.427C141.482 248.362 149.451 251.956 156.811 256.079L189.868 274.971C201.871 281.883 216.182 288.056 220.682 302.431C230.172 332.746 198.118 355.865 169.936 350.527C162.54 349.126 155.917 345.935 149.024 343.075L127.097 333.999C116.703 329.658 105.754 325.915 95.8171 320.62Z"/>
	<path fill="#09C3AF" transform="scale(2 2)" d="M80.4984 329.128C80.722 327.195 80.7809 325.286 80.8135 323.341L81.1177 323.542L81.0767 323.09L80.8143 323.218C80.8412 318.932 81.061 330.931 81.0614 335.553L81.1297 367.774C81.1502 370.985 79.9675 379.472 82.1604 381.368C82.2525 381.342 88.7275 377.686 89.8203 377.135L89.8704 377.276L90.1701 377.021L90.2987 377.081C91.0527 376.067 92.4377 375.491 94.3849 372.987C95.2273 373.808 95.3317 374.922 95.3808 376.032C95.5508 370.671 95.2296 323.372 95.6073 322.836L95.8171 325.1C96.1608 344.46 95.8112 363.893 95.8171 383.261C118.424 383.587 141.063 382.859 163.668 383.261C165.606 383.41 167.541 383.563 169.484 383.631C164.843 384.724 138.324 383.885 132.784 383.768C128.221 383.672 123.739 383.182 119.158 383.233C114.754 383.281 109.971 384.774 106.056 384.945L105.925 385.19L107.539 386.366L107.197 386.651L107.664 386.471L107.828 386.683L106.979 386.978C107.225 388.576 109.251 389.633 110.057 390.955C111.478 393.285 110.146 394.405 113.077 395.633L113.51 397.152L113.873 397.036L114.017 397.122C114.082 397.11 122.19 397.901 123.507 397.901L139.491 397.886C143.373 397.866 166.715 397.732 169.31 398.493C163.928 398.848 158.479 398.507 153.087 398.503L98.189 398.506C83.2538 398.512 80.3712 401.567 80.4839 384.914L80.4984 329.128Z"/>
</svg>
