<?xml version="1.0" encoding="utf-8" ?>
<svg xmlns="http://www.w3.org/2000/svg" xmlns:xlink="http://www.w3.org/1999/xlink" width="1024" height="1024">
	<path fill="#1EAEC9" transform="scale(2 2)" d="M133.005 196.575L179.301 196.575C183.518 204.097 189.078 209.617 194.338 216.253C175.051 216.554 155.643 216.486 136.355 216.253C135.718 214.499 135.571 212.265 135.259 210.415L133.005 196.575Z"/>
	<path fill="#1EAEC9" transform="scale(2 2)" d="M252.493 200.136L297.553 200.143C304.99 200.144 312.501 200.363 319.931 200.136C319.586 205.663 319.578 214.34 319.931 219.926L252.493 219.926C252.61 213.335 252.416 206.73 252.493 200.136Z"/>
	<defs>
		<linearGradient id="gradient_0" gradientUnits="userSpaceOnUse" x1="314.47665" y1="434.93405" x2="317.52426" y2="364.54434">
			<stop offset="0" stop-color="#139BDC"/>
			<stop offset="1" stop-color="#27C9EE"/>
		</linearGradient>
	</defs>
	<path fill="url(#gradient_0)" transform="scale(2 2)" d="M312.53 364.245C342.049 361.32 360.861 392.251 346.979 417.421C340.99 428.279 331.284 432.498 319.931 435.755C274.558 438.046 263.068 373.131 312.53 364.245ZM313.798 383.328C291.286 386.335 296.234 419.236 317.562 416.35C341.822 414.101 333.113 378.616 313.798 383.328Z"/>
	<defs>
		<linearGradient id="gradient_1" gradientUnits="userSpaceOnUse" x1="174.63913" y1="434.65567" x2="185.41072" y2="364.89062">
			<stop offset="0" stop-color="#1698DA"/>
			<stop offset="1" stop-color="#2BCDF1"/>
		</linearGradient>
	</defs>
	<path fill="url(#gradient_1)" transform="scale(2 2)" d="M178.398 364.245C197.1 363.003 213.624 377.887 215.672 396.312C217.965 416.931 201.892 433.588 182.057 435.755C172.399 435.95 162.919 432.602 155.81 425.973C132.896 404.605 147.208 364.846 178.398 364.245ZM178.398 383.328C154.783 386.934 160.662 418.749 182.81 416.35C205.124 411.356 199.326 381.17 178.398 383.328Z"/>
	<path fill="#56D5CD" transform="scale(2 2)" d="M252.493 219.926C247.628 218.671 242.546 219.061 237.607 218.23C182.051 208.876 159.505 135.204 202.582 95.4048C224.481 75.1717 242.725 75.5854 269.988 75.5894L377.066 75.5897C388.463 75.5864 400.588 75.1374 411.886 75.6584C425.731 76.2969 425.445 91.6691 416.518 94.5635C411.357 96.2367 390.904 95.4782 384.187 95.4749L263.417 95.4631C255.907 95.4621 247.829 95.0298 240.471 96.6456C185.616 108.693 186.114 188.999 243.237 199.154C246.278 199.695 249.418 199.869 252.493 200.136C252.416 206.73 252.61 213.335 252.493 219.926Z"/>
	<defs>
		<linearGradient id="gradient_2" gradientUnits="userSpaceOnUse" x1="302.746" y1="369.62378" x2="169.82887" y2="114.6834">
			<stop offset="0" stop-color="#395F81"/>
			<stop offset="1" stop-color="#56869E"/>
		</linearGradient>
	</defs>
	<path fill="url(#gradient_2)" transform="scale(2 2)" d="M109.44 171.479C104.82 171.462 95.5424 172.424 91.809 170.116C84.6032 165.662 87.0471 155.316 95.0446 153.857C97.5988 153.392 116.345 153.374 118.822 153.74C128.306 155.144 127.798 165.798 129.02 173.055C130.342 180.896 131.764 188.72 133.005 196.575L135.259 210.415C135.571 212.265 135.718 214.499 136.355 216.253C139.507 238.677 143.815 260.935 147.077 283.345L260.309 283.334C264.572 283.329 269.218 282.961 273.437 283.462C280.352 284.282 284.48 292.869 278.862 298.053C274.862 301.745 266.034 300.376 261.071 300.377L179.207 300.364C169.292 300.362 159.3 300.102 149.393 300.369L151.907 316.359C154.846 335.023 157.352 333.59 175.095 333.533L299.508 333.514C309.508 333.514 322.131 334.369 331.726 332.362C362.966 325.827 379.826 293.696 373.277 263.623C367.989 239.343 344.862 219.984 319.931 219.926C319.578 214.34 319.586 205.663 319.931 200.136C380.397 203.16 415.312 274.538 378.407 322.927C361.197 345.493 340.723 352.403 313.962 352.411L171.304 352.416C134.868 352.447 134.667 333.169 130.443 304.737L113.733 198.996C112.281 189.844 110.538 180.678 109.44 171.479Z"/>
</svg>
